<svg xmlns="http://www.w3.org/2000/svg" viewBox="0 0 152.29 106"><title>Asset 10</title><g id="Layer_2" data-name="Layer 2"><g id="Personality"><path d="M125.75,43.78A5.36,5.36,0,0,0,124,51.14,61,61,0,0,1,132.9,83a5.36,5.36,0,1,0,10.72,0,71.75,71.75,0,0,0-10.5-37.41A5.36,5.36,0,0,0,125.75,43.78Z"/><path d="M151.73,5.35h0V5.24a2.19,2.19,0,0,0,0-.36h0s0,0,0-.07,0-.35-.08-.52a4.39,4.39,0,0,0-.13-.52c0-.1-.08-.22-.11-.32s-.08-.17-.11-.26a5.34,5.34,0,0,0-1.57-2l-.38-.26a3.12,3.12,0,0,0-.43-.27l-.4-.19-.09,0-.46-.16L147.45.1h0a6.91,6.91,0,0,0-1-.1h-.28L119.75.56A5.36,5.36,0,0,0,120,11.27L133.7,11,84.15,63.53a23,23,0,1,0,7.47,7.7l49.67-52.68L141.58,32a5.36,5.36,0,0,0,5.35,5.24H147a5.35,5.35,0,0,0,5.24-5.47ZM71.8,95.29A12.32,12.32,0,1,1,84.12,83,12.33,12.33,0,0,1,71.8,95.29Z"/><path d="M71.81,21.87a61.22,61.22,0,0,1,28.81,7.21,5.36,5.36,0,0,0,5.06-9.44A71.82,71.82,0,0,0,0,83a5.36,5.36,0,0,0,10.71,0A61.17,61.17,0,0,1,71.81,21.87Z"/><path d="M86.38,48.48a5.36,5.36,0,0,0,4.18-9.87A48.18,48.18,0,0,0,23.67,83a5.36,5.36,0,1,0,10.71,0,37.45,37.45,0,0,1,52-34.49Z"/><path d="M108.06,59.59a5.35,5.35,0,0,0-2.51,7.15A37.25,37.25,0,0,1,109.23,83,5.36,5.36,0,0,0,120,83a47.78,47.78,0,0,0-4.75-20.88A5.35,5.35,0,0,0,108.06,59.59Z"/></g></g></svg>