<svg xmlns="http://www.w3.org/2000/svg" viewBox="0 0 156.5 106"><title>Asset 14</title><g id="Layer_2" data-name="Layer 2"><g id="Aptitude"><path d="M154.9,74.14,82.3,1.61h0A5.45,5.45,0,0,0,78.43,0a5.38,5.38,0,0,0-3.87,1.61l-22,22.05-.13.13L1.61,74.62a5.47,5.47,0,0,0,0,7.75l22,22a5.5,5.5,0,0,0,7.75,0L78.45,57.31l46.68,47.09a5.49,5.49,0,0,0,7.74,0l22-22.51a5.49,5.49,0,0,0,0-7.75Zm-26,18.47L78.41,42.07l-51,51L12.8,78.57,78.3,13,108.68,43.4l-9.75,9.74c-1.86,1.87.49,3.67,1.36,4.54s2.59,3.13,4.45,1.27l9.76-9.77,5.44,5.44-9.76,9.76c-1.88,1.87.4,3.59,1.28,4.47s2.66,3.22,4.54,1.35l9.76-9.77,5.5,5.5L121.5,75.7c-1.76,1.77.4,3.59,1.28,4.47s2.79,3,4.42,1.4L137,71.8l6.32,6.44Z"/></g></g></svg>