<svg xmlns="http://www.w3.org/2000/svg" viewBox="0 0 117.15 106"><title>Asset 12</title><g id="Layer_2" data-name="Layer 2"><g id="Behaviour"><path d="M92.08,85.87C95.81,79.46,102.43,66,102.43,53c0-14.32-4.52-24.64-10.39-32l23.7-10.7c1.89-.88,1.61-4.1.71-6.38-1-2.43-3.49-4.53-5.38-3.64L2.44,48.35C.87,49.09,0,51,0,53S.79,57,2.44,57.65L111.12,105.7c2.17,1.1,4.31-1,5.27-3.56.86-2.29,1.54-5.28-1.25-6.54Zm-9.91-60.2c5.28,5.46,6.46,9.39,8.28,17.5C88.48,44.37,87,47.54,87,53s1.46,8.83,3.43,10c-1.6,7.13-4,13.65-8.4,18.83L14.83,53Z"/></g></g></svg>