<svg xmlns="http://www.w3.org/2000/svg" viewBox="0 0 100.1 106"><title>Asset 9</title><g id="Layer_2" data-name="Layer 2"><g id="Emotion"><path d="M99.65,99.75,88.87,77.82A49.08,49.08,0,0,0,49.16,0c-1.24,0-2.5.05-3.74.14A49.1,49.1,0,0,0,.14,52.75,49.09,49.09,0,0,0,49,98.16c1.24,0,2.5,0,3.74-.14a48.79,48.79,0,0,0,18.3-5l22.61,12.46a4.38,4.38,0,0,0,2.1.54h.32a4.39,4.39,0,0,0,2.67-1.19,4.33,4.33,0,0,0,.9-5M69.23,82.2a37.79,37.79,0,0,1-5.18,2.66A38.42,38.42,0,0,1,52,87.76c-1,.07-2,.11-2.92.11h0a38.71,38.71,0,0,1-2.86-77.3c1-.07,2-.11,2.92-.11a38.68,38.68,0,0,1,32.27,60,40,40,0,0,1-3.27,4.28l-.73.82,6.87,14-14.2-7.82Z"/></g></g></svg>