<svg xmlns="http://www.w3.org/2000/svg" viewBox="0 0 160.87 106.25"><title>Asset 11</title><g id="Layer_2" data-name="Layer 2"><g id="Layer_8" data-name="Layer 8"><path d="M158.43,94,122.36,78.26a4.36,4.36,0,0,0-3.25-.1L102.81,71A53,53,0,0,0,33.68,3.68a53,53,0,0,0-30,68.64,52.87,52.87,0,0,0,68.64,30,50.49,50.49,0,0,0,25.87-22l16.54,7.23A4.31,4.31,0,0,0,117,89.85l36.21,15.83c2.21,1,4,1,5.54-2.34l1.65-3.69c1.09-2.43.24-4.66-2-5.63M68.54,92.67A42.58,42.58,0,1,1,92.05,70.06,42.34,42.34,0,0,1,68.54,92.67"/></g></g></svg>